<svg width="24" height="24" viewBox="0 0 24 24" fill="none" xmlns="http://www.w3.org/2000/svg">
<path d="M16.421 2.64669L14.4489 4.61925L19.3813 9.55263L21.3534 7.58007C22.2155 6.71781 22.2155 5.32402 21.3534 4.46176L19.5387 2.64669C18.6766 1.78444 17.2831 1.78444 16.421 2.64669ZM12.9097 5.75318L12.89 5.75712L7.21756 7.45801C6.4342 7.69425 5.81224 8.29271 5.55243 9.07228L2.06471 19.4784C1.95056 19.821 1.98992 20.195 2.16313 20.5021L8.28041 14.3836C8.2371 14.2261 8.21742 14.0647 8.21742 13.8954C8.21742 12.852 9.06376 12.0055 10.1069 12.0055C11.1501 12.0055 11.9964 12.852 11.9964 13.8954C11.9964 14.9388 11.1501 15.7853 10.1069 15.7853C9.93766 15.7853 9.77233 15.7617 9.61881 15.7223L3.50153 21.8368C3.80857 22.0101 4.1786 22.0495 4.52501 21.9353L14.9291 18.4469C15.7046 18.187 16.3069 17.5649 16.5431 16.7814L18.2436 11.1078L18.2476 11.0882L12.9136 5.75318H12.9097Z" fill="#F3D250"/>
<path d="M8.28041 14.3836L2.16313 20.5021L3.50153 21.8368L9.61881 15.7223C9.77233 15.7617 9.93766 15.7853 10.1069 15.7853C11.1501 15.7853 11.9964 14.9388 11.9964 13.8954C11.9964 12.852 11.1501 12.0055 10.1069 12.0055C9.06376 12.0055 8.21742 12.852 8.21742 13.8954C8.21742 14.0647 8.2371 14.2261 8.28041 14.3836Z" fill="black"/>
<path d="M12.9141 5.00293L13.0605 5.01758C13.2048 5.04639 13.3388 5.11711 13.4443 5.22266L18.7783 10.5576C18.9556 10.7349 19.0326 10.9895 18.9834 11.2354L18.9795 11.2549C18.9749 11.2779 18.9687 11.3008 18.9619 11.3232L17.2617 16.9971L17.2607 16.998C16.9545 18.0138 16.1737 18.8199 15.167 19.1572L4.76367 22.6465L4.75977 22.6475C4.21193 22.828 3.62281 22.7667 3.13281 22.4902C3.07388 22.457 3.01959 22.4159 2.97168 22.3682L1.63379 21.0332C1.58534 20.9849 1.54338 20.9297 1.50977 20.8701C1.23391 20.3808 1.1716 19.7871 1.35352 19.2412V19.2402L4.84082 8.83398C5.17863 7.82147 5.98698 7.04606 7.00098 6.74023L7.00195 6.73926L12.6748 5.03906L12.7432 5.02148L12.7627 5.01758L12.9102 5.00293H12.9141ZM15.8906 2.11621C17.0456 0.96108 18.9144 0.96102 20.0693 2.11621L21.8838 3.93164C23.0386 5.08678 23.0387 6.95523 21.8838 8.11035L19.9121 10.083C19.7715 10.2237 19.5798 10.3027 19.3809 10.3027C19.1821 10.3026 18.9911 10.2236 18.8506 10.083L13.9189 5.14941C13.6261 4.85653 13.6261 4.38175 13.9189 4.08887L15.8906 2.11621Z" stroke="black" stroke-width="1.5" stroke-linejoin="round"/>
</svg>
